<?xml version="1.0" ?><svg enable-background="new 0 0 64 64" height="64px" version="1.1" viewBox="0 0 64 64" width="64px" xml:space="preserve" xmlns="http://www.w3.org/2000/svg" xmlns:xlink="http://www.w3.org/1999/xlink"><g id="Layer_1"><g><circle cx="31.833" cy="32" fill="#E0E0D1" r="32"/></g><g opacity="0.2"><path d="M32,12c-8.545,0-18,5.375-21.083,15.656c-1.558,5.194,5.187,3.119,5.646,9.157    c0.375,4.938-1.113,6.599-1.437,9.562c-0.438,4,8.875,10,17.24,9.621C44.64,55.439,54.045,46.288,54.045,34S44.288,12,32,12z     M24,48c-2.209,0-4-1.791-4-4c0-2.209,1.791-4,4-4s4,1.791,4,4C28,46.209,26.209,48,24,48z" fill="#231F20"/></g><g><path d="M32,10c-8.545,0-18,5.375-21.083,15.656c-1.558,5.194,5.187,3.119,5.646,9.157    c0.375,4.938-1.113,6.599-1.437,9.562c-0.438,4,8.875,10,17.24,9.621C44.64,53.439,54.045,44.288,54.045,32S44.288,10,32,10z     M24,46c-2.209,0-4-1.791-4-4c0-2.209,1.791-4,4-4s4,1.791,4,4C28,44.209,26.209,46,24,46z" fill="#E0995E"/></g><g opacity="0.2"><circle cx="20.715" cy="25" fill="#231F20" r="4"/></g><g opacity="0.2"><circle cx="32" cy="19.613" fill="#231F20" r="4"/></g><g opacity="0.2"><circle cx="43.211" cy="24.728" fill="#231F20" r="4"/></g><g opacity="0.2"><circle cx="46.188" cy="37.271" fill="#231F20" r="4"/></g><g opacity="0.2"><circle cx="37.104" cy="47.104" fill="#231F20" r="4"/></g><g><circle cx="20.715" cy="23" fill="#C75C5C" r="4"/></g><g><circle cx="32" cy="17.613" fill="#F5CF87" r="4"/></g><g><circle cx="43.211" cy="22.728" fill="#76C2AF" r="4"/></g><g><circle cx="46.188" cy="35.271" fill="#FFFFFF" r="4"/></g><g><circle cx="37.104" cy="45.104" fill="#4F5D73" r="4"/></g></g><g id="Layer_2"/></svg>