<?xml version="1.0" encoding="iso-8859-1"?>
<!-- Generator: Adobe Illustrator 19.0.0, SVG Export Plug-In . SVG Version: 6.00 Build 0)  -->
<svg version="1.1" id="Layer_1" xmlns="http://www.w3.org/2000/svg" xmlns:xlink="http://www.w3.org/1999/xlink" x="0px" y="0px"
	 viewBox="0 0 512 512" style="enable-background:new 0 0 512 512;" xml:space="preserve">
<circle style="fill:#71E2F0;" cx="256" cy="256" r="256"/>
<path style="fill:#38C6D9;" d="M378.844,132.723c-8.371,3.027-18.442,2.524-26.305-0.845c-20.687-6.896-37.926-25.859-58.613-32.754
	c-29.91-8.052-59.052-3.817-87.94,4.499l-68.339,40.2l-34.287,64.384c-6.173,43.827-8.93,87.483,9.556,127.093
	c6.713,13.424,13.774,27.953,18.479,42.194l134.228,134.308c133.73-4.944,241.236-112.45,246.181-246.181L378.844,132.723z"/>
<path style="fill:#273B7A;" d="M256,81.886c-96.006,0-174.114,78.108-174.114,174.114S159.994,430.114,256,430.114
	S430.114,352.006,430.114,256S352.006,81.886,256,81.886z M369.304,351.47c-5.422-4.806-11.097-9.235-16.996-13.272
	c7.394-21.182,11.84-44.715,12.998-69.268h38.352C400.939,300.222,388.475,328.752,369.304,351.47z M142.696,160.53
	c5.422,4.806,11.097,9.235,16.996,13.272c-7.394,21.182-11.84,44.715-12.998,69.268h-38.352
	C111.061,211.778,123.525,183.248,142.696,160.53z M342.163,149.783c-2.101-4.148-4.329-8.163-6.692-12.023
	c-2.136-3.487-4.355-6.806-6.644-9.966c7.63,4.422,14.9,9.549,21.709,15.376C347.82,145.494,345.017,147.68,342.163,149.783z
	 M350.536,368.83c-6.809,5.827-14.079,10.954-21.709,15.376c2.289-3.162,4.51-6.478,6.644-9.966
	c2.362-3.86,4.591-7.877,6.692-12.023C345.017,364.32,347.82,366.506,350.536,368.83z M169.837,362.217
	c2.101,4.148,4.329,8.163,6.692,12.023c2.136,3.487,4.355,6.806,6.644,9.966c-7.63-4.422-14.9-9.549-21.709-15.376
	C164.18,366.506,166.983,364.32,169.837,362.217z M161.464,143.17c6.809-5.827,14.079-10.954,21.709-15.376
	c-2.289,3.162-4.51,6.478-6.644,9.966c-2.362,3.86-4.591,7.877-6.692,12.023C166.983,147.68,164.18,145.494,161.464,143.17z
	 M241.116,334.774C246.031,334.279,250.992,334,256,334c5.008,0,9.969,0.279,14.884,0.774c-4.051,32.82-10.123,53.972-14.884,62.655
	C251.239,388.746,245.167,367.594,241.116,334.774z M256,308.576c-5.847,0-11.648,0.293-17.387,0.867
	c-0.933-12.319-1.57-25.841-1.81-40.514h38.397c-0.24,14.672-0.877,28.193-1.81,40.514C267.648,308.867,261.847,308.576,256,308.576
	z M236.803,243.071c0.24-14.672,0.877-28.193,1.81-40.514c5.739,0.574,11.54,0.867,17.387,0.867c5.847,0,11.648-0.293,17.387-0.867
	c0.933,12.319,1.57,25.841,1.81,40.514H236.803z M256,178c-5.008,0-9.969-0.279-14.884-0.774
	c4.051-32.82,10.123-53.972,14.884-62.655c4.761,8.683,10.833,29.836,14.884,62.655C265.969,177.721,261.008,178,256,178z
	 M225.949,120.773c-1.953,6.287-3.755,13.465-5.422,21.601c-1.879,9.163-3.5,19.232-4.853,29.977
	c-8.128-2.327-16.017-5.358-23.597-9.068C201.133,144.641,212.783,129.864,225.949,120.773z M213.061,198.023
	c-1.143,14.334-1.858,29.47-2.114,45.047h-38.364c1.074-20.028,4.598-39.038,10.05-56.073
	C192.388,191.633,202.566,195.324,213.061,198.023z M210.947,268.929c0.255,15.577,0.971,30.713,2.114,45.047
	c-10.495,2.698-20.673,6.389-30.427,11.026c-5.454-17.036-8.976-36.043-10.05-56.073H210.947z M215.673,339.649
	c1.355,10.745,2.974,20.814,4.853,29.977c1.669,8.135,3.469,15.313,5.422,21.601c-13.165-9.09-24.816-23.867-33.873-42.51
	C199.658,345.007,207.546,341.976,215.673,339.649z M286.051,391.227c1.953-6.287,3.755-13.465,5.422-21.601
	c1.879-9.163,3.5-19.232,4.853-29.977c8.128,2.327,16.017,5.358,23.597,9.068C310.867,367.359,299.217,382.136,286.051,391.227z
	 M298.939,313.977c1.143-14.334,1.858-29.47,2.113-45.047h38.364c-1.074,20.028-4.598,39.038-10.05,56.073
	C319.612,320.367,309.434,316.676,298.939,313.977z M301.053,243.071c-0.255-15.577-0.971-30.713-2.113-45.047
	c10.495-2.698,20.673-6.389,30.427-11.026c5.454,17.036,8.976,36.043,10.05,56.073H301.053z M296.327,172.351
	c-1.355-10.745-2.974-20.814-4.853-29.977c-1.669-8.135-3.468-15.315-5.422-21.601c13.165,9.09,24.816,23.867,33.873,42.51
	C312.342,166.993,304.454,170.024,296.327,172.351z M146.694,268.929c1.158,24.554,5.604,48.087,12.998,69.268
	c-5.899,4.036-11.574,8.466-16.996,13.272c-19.172-22.718-31.635-51.248-34.354-82.541H146.694z M365.306,243.071
	c-1.158-24.554-5.604-48.087-12.998-69.268c5.899-4.036,11.574-8.466,16.996-13.272c19.172,22.718,31.637,51.248,34.354,82.541
	H365.306z"/>
<path style="fill:#121149;" d="M256,81.886c-0.576,0-1.148,0.016-1.724,0.022v36.243c0.588-1.358,1.165-2.563,1.724-3.581
	c4.761,8.683,10.833,29.836,14.884,62.655C265.969,177.721,261.008,178,256,178c-0.576,0-1.148-0.016-1.724-0.024v25.426
	c0.574,0.005,1.148,0.022,1.724,0.022c5.847,0,11.648-0.293,17.387-0.867c0.933,12.319,1.57,25.841,1.81,40.514h-20.921v25.859
	h20.921c-0.24,14.672-0.877,28.193-1.81,40.514c-5.739-0.574-11.54-0.867-17.387-0.867c-0.576,0-1.148,0.016-1.724,0.022v25.426
	C254.85,334.017,255.424,334,256,334c5.008,0,9.969,0.279,14.884,0.774c-4.051,32.82-10.123,53.972-14.884,62.655
	c-0.559-1.017-1.134-2.222-1.724-3.581v36.243c0.574,0.005,1.148,0.022,1.724,0.022c96.006,0,174.114-78.108,174.114-174.114
	S352.006,81.886,256,81.886z M369.304,160.53c19.172,22.718,31.637,51.248,34.354,82.541h-38.352
	c-1.158-24.554-5.604-48.087-12.998-69.268C358.205,169.765,363.88,165.336,369.304,160.53z M319.924,163.283
	c-7.58,3.71-15.469,6.74-23.597,9.068c-1.355-10.745-2.974-20.814-4.853-29.977c-1.669-8.135-3.469-15.315-5.422-21.601
	C299.217,129.864,310.867,144.641,319.924,163.283z M301.053,243.071c-0.255-15.577-0.971-30.713-2.113-45.047
	c10.495-2.698,20.673-6.389,30.427-11.026c5.454,17.036,8.976,36.043,10.05,56.073H301.053z M339.416,268.929
	c-1.074,20.028-4.598,39.038-10.05,56.073c-9.752-4.636-19.932-8.326-30.427-11.026c1.143-14.334,1.858-29.47,2.113-45.047
	L339.416,268.929L339.416,268.929z M286.051,391.227c1.953-6.287,3.755-13.465,5.422-21.601c1.879-9.163,3.5-19.232,4.853-29.977
	c8.128,2.327,16.017,5.358,23.597,9.068C310.867,367.359,299.217,382.136,286.051,391.227z M328.826,384.205
	c2.289-3.162,4.51-6.478,6.644-9.966c2.362-3.86,4.591-7.877,6.692-12.023c2.853,2.103,5.656,4.291,8.373,6.613
	C343.726,374.658,336.456,379.785,328.826,384.205z M342.163,149.783c-2.101-4.148-4.329-8.163-6.692-12.023
	c-2.136-3.487-4.355-6.806-6.644-9.966c7.63,4.422,14.9,9.549,21.709,15.376C347.82,145.494,345.017,147.68,342.163,149.783z
	 M369.304,351.47c-5.422-4.806-11.097-9.235-16.996-13.272c7.394-21.182,11.84-44.715,12.998-69.268h38.352
	C400.939,300.222,388.475,328.752,369.304,351.47z"/>
<g>
</g>
<g>
</g>
<g>
</g>
<g>
</g>
<g>
</g>
<g>
</g>
<g>
</g>
<g>
</g>
<g>
</g>
<g>
</g>
<g>
</g>
<g>
</g>
<g>
</g>
<g>
</g>
<g>
</g>
</svg>
