<?xml version="1.0" ?><svg enable-background="new 0 0 52 52" id="Layer_1" version="1.1" viewBox="0 0 52 52" xml:space="preserve" xmlns="http://www.w3.org/2000/svg" xmlns:xlink="http://www.w3.org/1999/xlink"><g><g><g><path d="M42,42H10V10h32V42z M12,40h28V12H12V40z" fill="#0096E6"/></g></g><g><g><path d="M26,36.5h-7c-1.6542969,0-3-1.3457031-3-3v-7h2v7c0,0.5512695,0.4487305,1,1,1h7V36.5z" fill="#0096E6"/></g></g><g><g><path d="M36,26.5h-2v-7c0-0.5512695-0.4487305-1-1-1h-7.293457v-2H33c1.6542969,0,3,1.3457031,3,3V26.5z" fill="#0096E6"/></g></g><g><g><g><g><rect fill="#0096E6" height="2" width="7" x="42" y="12.5"/></g></g><g><g><rect fill="#0096E6" height="2" width="7" x="42" y="17.5"/></g></g><g><g><rect fill="#0096E6" height="2" width="7" x="42" y="22.5"/></g></g><g><g><rect fill="#0096E6" height="2" width="7" x="42" y="27.5"/></g></g><g><g><rect fill="#0096E6" height="2" width="7" x="42" y="32.5"/></g></g><g><g><rect fill="#0096E6" height="2" width="7" x="42" y="37.5"/></g></g></g><g><g><g><rect fill="#0096E6" height="2" width="7" x="3" y="12.5"/></g></g><g><g><rect fill="#0096E6" height="2" width="7" x="3" y="17.5"/></g></g><g><g><rect fill="#0096E6" height="2" width="7" x="3" y="22.5"/></g></g><g><g><rect fill="#0096E6" height="2" width="7" x="3" y="27.5"/></g></g><g><g><rect fill="#0096E6" height="2" width="7" x="3" y="32.5"/></g></g><g><g><rect fill="#0096E6" height="2" width="7" x="3" y="37.5"/></g></g></g></g><g><g><g><g><rect fill="#0096E6" height="7" width="2" x="37.5" y="3"/></g></g><g><g><rect fill="#0096E6" height="7" width="2" x="32.5" y="3"/></g></g><g><g><rect fill="#0096E6" height="7" width="2" x="27.5" y="3"/></g></g><g><g><rect fill="#0096E6" height="7" width="2" x="22.5" y="3"/></g></g><g><g><rect fill="#0096E6" height="7" width="2" x="17.5" y="3"/></g></g><g><g><rect fill="#0096E6" height="7" width="2" x="12.5" y="3"/></g></g></g><g><g><g><rect fill="#0096E6" height="7" width="2" x="37.5" y="42"/></g></g><g><g><rect fill="#0096E6" height="7" width="2" x="32.5" y="42"/></g></g><g><g><rect fill="#0096E6" height="7" width="2" x="27.5" y="42"/></g></g><g><g><rect fill="#0096E6" height="7" width="2" x="22.5" y="42"/></g></g><g><g><rect fill="#0096E6" height="7" width="2" x="17.5" y="42"/></g></g><g><g><rect fill="#0096E6" height="7" width="2" x="12.5" y="42"/></g></g></g></g><g><g><rect fill="#0096E6" height="2.0225739" transform="matrix(0.7071068 -0.7071068 0.7071068 0.7071068 -6.0951891 14.7150879)" width="1.9997864" x="13.7151947" y="13.7038012"/></g></g><g><g><rect fill="#0096E6" height="2.0218835" transform="matrix(0.7071068 -0.7071068 0.7071068 0.7071068 -15.4440174 37.2851563)" width="1.9997864" x="36.2852631" y="36.2742157"/></g></g></g></svg>